<svg xmlns="http://www.w3.org/2000/svg" version="1.1" width="1200" height="1200">
<circle cx="50%" cy="50%" r="50%" fill="#dbdbdb" />
<path d="M0 0 C5.02307048 1.49563334 7.96816549 4.4990938 11.625 8.0625 C16.62161645 12.81857484 21.71259319 17.31527295 27.09765625 21.6328125 C30.58573459 24.47773238 33.98178627 27.41813645 37.375 30.375 C42.09958279 34.48909293 46.83809966 38.58350506 51.625 42.625 C52.15480469 43.07230469 52.68460938 43.51960938 53.23046875 43.98046875 C54.81971126 45.32102784 56.40969943 46.66069631 58 48 C65.49133537 54.30897911 72.93881972 60.66348492 80.33447266 67.08447266 C92.885791 78.00323438 92.885791 78.00323438 105.6875 88.625 C109.42805827 91.65803332 113.01876756 94.80167057 116.5625 98.0625 C120.64683338 101.81847371 124.84523373 105.31654684 129.20703125 108.7421875 C133.35811754 112.09789083 137.35980727 115.6202707 141.37719727 119.1340332 C146.06358311 123.22203022 150.84162027 127.15500703 155.73046875 131 C158.15446732 133.13612266 160.05601754 135.42589909 162 138 C152.88441593 144.66081807 143.72539825 151.23440417 134.375 157.5625 C127.71950922 162.07151711 121.24305189 166.75549355 114.8449707 171.62133789 C109.04308687 176.01569413 103.07351571 180.1312342 97.05859375 184.2265625 C86.18437078 191.6337562 75.51950519 199.33845276 64.87597656 207.0715332 C59.4415843 211.00216052 53.92801353 214.80185086 48.375 218.5625 C41.65068767 223.11867373 35.1021087 227.8500326 28.6340332 232.76196289 C23.11417979 236.94573013 17.46029421 240.88634815 11.74414062 244.79882812 C8.41603863 247.09085805 5.11426072 249.42025295 1.8125 251.75 C1.09916504 252.25329834 0.38583008 252.75659668 -0.34912109 253.27514648 C-5.61464878 256.99975888 -10.84210618 260.77500109 -16.0625 264.5625 C-22.00491443 268.86571699 -27.97320993 273.12808588 -34 277.3125 C-34.67683838 277.78695557 -35.35367676 278.26141113 -36.05102539 278.75024414 C-40.76491004 282 -40.76491004 282 -43 282 C-43.33128476 275.81601779 -42.5773567 270.32225566 -41.34619141 264.26245117 C-39.72035688 256.01370463 -38.68159201 247.6842462 -37.62207031 239.34667969 C-36.19355122 228.47725006 -34.12449633 217.75197329 -32 207 C-41.66757071 207.06157385 -51.33485541 207.13893539 -61.00213814 207.23571491 C-65.49245487 207.28018733 -69.98268569 207.31949238 -74.47314453 207.34643555 C-78.81757326 207.37270187 -83.16166712 207.41326321 -87.50588608 207.46318626 C-89.15217759 207.479699 -90.79852681 207.49130925 -92.44488907 207.49761391 C-116.02874459 207.59694541 -137.38774691 213.68623452 -154.8125 230.1875 C-167.18200374 243.24722568 -174.87306038 259.59253231 -179.41064453 276.84863281 C-180.6537076 281.38627645 -182.05973678 285.8768366 -183.4375 290.375 C-183.74300781 291.37595703 -184.04851563 292.37691406 -184.36328125 293.40820312 C-186.05581216 298.94509377 -187.76718933 304.4755937 -189.5 310 C-191.56853498 316.59602381 -193.60485258 323.20149346 -195.625 329.8125 C-195.91439453 330.75544922 -196.20378906 331.69839844 -196.50195312 332.66992188 C-197.91402274 337.30215945 -199.2695481 341.94053764 -200.52734375 346.6171875 C-201.8606241 351.56378071 -203.36254821 356.43831356 -204.9375 361.3125 C-207.06182172 367.96274918 -209.06928068 374.63079804 -210.9609375 381.3515625 C-212.14701844 385.51622265 -213.37929102 389.66535539 -214.625 393.8125 C-214.86992188 394.62855713 -215.11484375 395.44461426 -215.3671875 396.28540039 C-216.82221068 401.12076696 -218.28955753 405.95224746 -219.76641846 410.7809906 C-220.84617987 414.31174785 -221.92363951 417.8432046 -223 421.375 C-223.32786499 422.4505162 -223.32786499 422.4505162 -223.66235352 423.54776001 C-226.54544721 433.02087737 -229.27569755 442.51521032 -231.81030273 452.08837891 C-233.96944139 460.1306194 -236.52336794 468.03208465 -239.10546875 475.94702148 C-241.10903 482.11615994 -242.95660222 488.29501395 -244.625 494.5625 C-252.85584948 525.00504071 -269.1537861 552.66962689 -297 569 C-316.22001469 579.53765447 -336.1677288 582.34046639 -357.7734375 582.1953125 C-359.43494494 582.19157148 -361.09645463 582.18872968 -362.75796509 582.18673706 C-367.08152613 582.17918617 -371.40494775 582.15961367 -375.72845459 582.1373291 C-380.16009639 582.11668401 -384.59176123 582.10769589 -389.0234375 582.09765625 C-397.68235487 582.07635759 -406.34115998 582.04232814 -415 582 C-414.59223076 580.57372536 -414.59223076 580.57372536 -414.17622375 579.11863708 C-413.81812119 577.86575394 -413.46001862 576.61287079 -413.09106445 575.32202148 C-412.73671829 574.08242172 -412.38237213 572.84282196 -412.01728821 571.56565857 C-411.18851649 568.66076204 -410.36347448 565.75489501 -409.54296875 562.84765625 C-405.86539793 549.84510313 -401.97333853 536.914908 -398 524 C-397.35285122 521.89323327 -396.70571606 519.78646236 -396.05859375 517.6796875 C-393.70269977 510.01477747 -391.34104095 502.3516458 -388.97949219 494.68847656 C-386.96913337 488.16396594 -384.96144958 481.63864284 -382.95703125 475.11230469 C-382.03639287 472.11835111 -381.1120703 469.1255537 -380.1875 466.1328125 C-379.60369609 464.23451966 -379.02035688 462.33608383 -378.4375 460.4375 C-378.01223022 459.05872681 -378.01223022 459.05872681 -377.57836914 457.65209961 C-376.01231772 452.51965093 -374.55049686 447.37285767 -373.18359375 442.18359375 C-372.88074463 441.04801025 -372.57789551 439.91242676 -372.26586914 438.74243164 C-371.68625384 436.55152075 -371.12085159 434.35678366 -370.57202148 432.15795898 C-368.23950033 423.36768438 -364.54036564 419.6954691 -356.82006836 415.15722656 C-356.0544458 414.7134668 -355.28882324 414.26970703 -354.5 413.8125 C-346.49966009 409.05392147 -339.24171841 403.84297554 -332 398 C-330.27368669 396.6421977 -328.54483004 395.28761754 -326.8125 393.9375 C-326.11769531 393.38964844 -325.42289063 392.84179688 -324.70703125 392.27734375 C-323 391 -323 391 -321 390 C-322.33402016 396.30972567 -323.93285567 402.45741704 -325.8125 408.625 C-326.07675781 409.500354 -326.34101562 410.37570801 -326.61328125 411.27758789 C-328.15949044 416.36177275 -329.78635834 421.40749034 -331.5 426.4375 C-333.73211362 433.03463582 -335.66727799 439.69188182 -337.55859375 446.39379883 C-342.07313595 462.38137742 -346.77773726 478.31452928 -351.84936523 494.13452148 C-353.981998 500.83303604 -355.90434889 507.58526031 -357.81420898 514.35009766 C-360.92284526 525.32718124 -364.37153222 536.18393044 -368 547 C-343.92517658 547.34160153 -343.92517658 547.34160153 -321 541 C-319.49566406 540.33291016 -319.49566406 540.33291016 -317.9609375 539.65234375 C-310.98407867 536.20235433 -305.48681473 531.4679597 -300 526 C-299.37351562 525.39671875 -298.74703125 524.7934375 -298.1015625 524.171875 C-289.93177489 515.66938111 -285.32496192 504.6379139 -281.74609375 493.58203125 C-281.44996689 492.6801004 -281.15384003 491.77816956 -280.84873962 490.84890747 C-277.11437159 479.40128137 -273.58723761 467.88847286 -270.0625 456.375 C-269.35254134 454.06288121 -268.64249839 451.7507883 -267.93237305 449.4387207 C-264.00990841 436.65202495 -260.13783759 423.85301112 -256.38525391 411.01538086 C-254.84809963 405.77642815 -253.22186082 400.59737143 -251.4375 395.4375 C-248.76653662 387.65764693 -246.75513036 379.71433108 -244.66040039 371.76342773 C-242.7316975 364.51651394 -240.57131676 357.41341214 -238.12475586 350.3269043 C-236.44298532 345.42588825 -234.97458955 340.50224637 -233.625 335.5 C-231.58089994 327.9263472 -229.32275382 320.43023689 -227 312.9375 C-223.69245037 302.26738593 -223.69245037 302.26738593 -220.5 291.5625 C-220.21745361 290.6024707 -220.21745361 290.6024707 -219.92919922 289.62304688 C-218.64970384 285.26328483 -217.40315501 280.89485522 -216.1640625 276.5234375 C-212.55663834 263.9141215 -208.84056524 251.758832 -203 240 C-202.56034912 239.08250977 -202.56034912 239.08250977 -202.11181641 238.14648438 C-189.09040913 211.07769818 -167.45791614 189.62304432 -138.921875 179.5 C-123.45543174 174.33645572 -108.05078237 171.82749548 -91.76708984 171.88647461 C-90.69273682 171.88632858 -89.61838379 171.88618256 -88.51147461 171.8860321 C-84.99460767 171.88672338 -81.47779508 171.89447872 -77.9609375 171.90234375 C-75.50900298 171.90421072 -73.05706808 171.90563331 -70.60513306 171.90663147 C-64.17725581 171.91043466 -57.74940146 171.92024603 -51.3215332 171.93133545 C-44.75211903 171.94159698 -38.18270114 171.94613922 -31.61328125 171.95117188 C-18.74217778 171.9618704 -5.87109011 171.97872577 7 172 C6.85087103 174.04009238 6.69945922 176.08001794 6.54711914 178.11987305 C6.42102013 179.8238752 6.42102013 179.8238752 6.29237366 181.56230164 C5.85771975 186.67291601 5.1646182 191.73658872 4.4375 196.8125 C4.22963867 198.2984668 4.22963867 198.2984668 4.01757812 199.81445312 C3.68194746 202.21016163 3.34274474 204.60530084 3 207 C8.14283736 204.16578433 12.92093593 201.04870968 17.6875 197.625 C19.19236451 196.55290263 20.69758789 195.48130888 22.203125 194.41015625 C22.98623047 193.85215332 23.76933594 193.29415039 24.57617188 192.71923828 C28.6792878 189.80886939 32.81062605 186.9390244 36.9375 184.0625 C44.17660609 179.00925728 51.34947353 173.87249261 58.49194336 168.68383789 C63.91410343 164.75595976 69.40665098 160.94465178 74.94213867 157.17871094 C80.98647431 153.0502844 86.90705119 148.75699677 92.79882812 144.4140625 C97.06616663 141.29427628 101.3578847 138.53150834 106 136 C98.84430506 128.6057819 91.02767468 121.97355696 83.0390625 115.50390625 C78.22827971 111.54026644 73.54383941 107.43350845 68.84375 103.33984375 C65.14512201 100.11945435 61.41840447 96.93287356 57.6875 93.75 C53.67640744 90.32573395 49.71344294 86.86272725 45.8125 83.3125 C39.12313926 77.24129801 32.0551608 71.63652882 25 66 C24.92483154 66.66829834 24.84966309 67.33659668 24.7722168 68.02514648 C24.41606207 71.16323843 24.05178013 74.30034128 23.6875 77.4375 C23.51057617 79.01241211 23.51057617 79.01241211 23.33007812 80.61914062 C22.57049609 87.1048026 21.59656163 93.52094992 20.44067383 99.94555664 C20.3018705 100.72421333 20.16306717 101.50287003 20.02005768 102.30512238 C19.68142139 104.20366211 19.34090687 106.10186667 19 108 C18.09778214 108.00219984 18.09778214 108.00219984 17.17733765 108.00444412 C2.42281568 108.04178036 -12.33150032 108.10114228 -27.08583069 108.18390274 C-34.22144867 108.22341742 -41.35696077 108.25594774 -48.49267578 108.27099609 C-54.72486959 108.2841579 -60.9568277 108.31148213 -67.18888855 108.35461307 C-70.47726871 108.37690848 -73.76530735 108.39081313 -77.05377197 108.39188385 C-93.78610741 108.40279577 -109.59086896 109.71649927 -126 113 C-128.37739161 113.45017265 -130.75550274 113.89633398 -133.13381958 114.34158707 C-155.62563473 118.81450706 -177.55633137 129.53159893 -196 143 C-196.52303711 143.37640625 -197.04607422 143.7528125 -197.58496094 144.140625 C-213.86000032 155.9560926 -227.67030947 170.41484197 -239 187 C-239.40653809 187.59377441 -239.81307617 188.18754883 -240.23193359 188.79931641 C-242.9388322 192.79670023 -245.50188876 196.8694709 -248 201 C-248.54237305 201.88727783 -248.54237305 201.88727783 -249.09570312 202.79248047 C-261.08165301 222.58409524 -269.31346 244.41756118 -276 266.5 C-291.95333297 319.09927356 -319.31187166 368.69432001 -369.03466797 395.95629883 C-378.15193 400.77890402 -387.70852114 405.24670215 -397.5859375 408.26171875 C-399.50037136 408.84720095 -401.39830799 409.48658461 -403.2890625 410.14453125 C-424.31919372 417.35242647 -445.28349426 418.59593632 -467.37057817 418.46426249 C-471.0845885 418.44668351 -474.79857868 418.45285524 -478.51261902 418.45587158 C-484.91893225 418.45795009 -491.32508019 418.44560057 -497.73135185 418.42292023 C-506.99325614 418.39015168 -516.25508203 418.37996808 -525.517038 418.37496826 C-540.55071039 418.36625415 -555.58429505 418.33974511 -570.61791992 418.30175781 C-585.20548062 418.2649364 -599.79301733 418.2366745 -614.38061523 418.21972656 C-615.73362126 418.21815022 -615.73362126 418.21815022 -617.11396074 418.21654204 C-621.63989366 418.21132118 -626.16582674 418.20626652 -630.69175994 418.20129442 C-668.12790185 418.15995358 -705.56394404 418.08961233 -743 418 C-742.69246275 416.57018811 -742.382103 415.14098315 -742.0705719 413.71203613 C-741.89804681 412.91608284 -741.72552172 412.12012955 -741.54776859 411.30005646 C-740.82170992 408.25136771 -739.78589378 405.38858954 -738.65234375 402.46875 C-738.21212891 401.32921875 -737.77191406 400.1896875 -737.31835938 399.015625 C-736.86267578 397.85546875 -736.40699219 396.6953125 -735.9375 395.5 C-735.24817383 393.71335937 -735.24817383 393.71335937 -734.54492188 391.890625 C-731.14583333 383.14583333 -731.14583333 383.14583333 -730 382 C-728.45974734 381.89988369 -726.91490421 381.86969455 -725.37140369 381.86692142 C-724.36437832 381.86268038 -723.35735294 381.85843933 -722.31981164 381.85406977 C-720.64010649 381.85464897 -720.64010649 381.85464897 -718.9264679 381.85523987 C-717.15753253 381.8499496 -717.15753253 381.8499496 -715.35286111 381.84455246 C-712.06427784 381.83568472 -708.77574175 381.83129814 -705.48715103 381.82870948 C-701.94561861 381.82482577 -698.4041017 381.81518739 -694.86257935 381.80615234 C-688.71844611 381.79118777 -682.57431412 381.77965424 -676.43017006 381.77020454 C-667.531423 381.75634104 -658.63270444 381.73515258 -649.73397782 381.71177601 C-635.27765539 381.67381717 -620.82132775 381.63886814 -606.36499023 381.60717773 C-605.49895918 381.60527724 -604.63292813 381.60337675 -603.74065372 381.60141867 C-591.47451537 381.57463739 -579.20837307 381.55075351 -566.94222661 381.52803367 C-566.08013704 381.52643637 -565.21804748 381.52483906 -564.32983398 381.52319336 C-563.46879664 381.52159989 -562.60775929 381.52000643 -561.72062991 381.51836468 C-547.33545204 381.49154517 -532.95030413 381.45711906 -518.56515855 381.41653961 C-509.69700586 381.39182746 -500.82888535 381.37346569 -491.96070375 381.363384 C-485.87181085 381.35596117 -479.78296109 381.34138717 -473.69409684 381.32131977 C-470.18660251 381.30999063 -466.67917756 381.30179024 -463.17166328 381.30232811 C-459.35579518 381.3012383 -455.54014929 381.28792499 -451.72431946 381.27174377 C-450.08811338 381.27566906 -450.08811338 381.27566906 -448.41885263 381.27967364 C-436.97082321 381.2043511 -425.79492865 379.6106504 -414.8125 376.375 C-413.92812256 376.11630127 -413.04374512 375.85760254 -412.13256836 375.59106445 C-391.22901875 369.26844331 -374.08842092 359.68428444 -358 345 C-357.0409375 344.12472656 -356.081875 343.24945312 -355.09375 342.34765625 C-347.99186278 335.55498041 -342.36663117 328.1786667 -337 320 C-336.42403076 319.1344751 -336.42403076 319.1344751 -335.83642578 318.25146484 C-331.05123358 310.98082953 -327.13932791 303.46227624 -323.71875 295.4609375 C-323.33065659 294.55330154 -322.94256317 293.64566559 -322.54270935 292.71052551 C-318.55398563 283.20363846 -315.27259955 273.48896993 -312.05502319 263.69970703 C-306.38480629 246.49117495 -300.57300662 229.47952763 -293 213 C-292.56381348 212.03852051 -292.12762695 211.07704102 -291.67822266 210.08642578 C-282.71673164 190.43849175 -272.63355272 172.77377343 -259 156 C-258.49178711 155.37464355 -257.98357422 154.74928711 -257.45996094 154.10498047 C-247.13912889 141.52163377 -235.93556352 129.91842136 -223 120 C-222.19320801 119.37061523 -222.19320801 119.37061523 -221.37011719 118.72851562 C-182.06474827 88.18492208 -133.49163139 73.31561502 -84.046875 73.70703125 C-81.92311914 73.7126452 -79.79935932 73.71690675 -77.67559814 73.71989441 C-72.15853637 73.73120181 -66.64172177 73.76054278 -61.12475586 73.79400635 C-55.46601706 73.82501622 -49.80723726 73.83846496 -44.1484375 73.85351562 C-33.09885133 73.88542988 -22.04944643 73.9364494 -11 74 C-10.9094122 73.36759462 -10.81882441 72.73518925 -10.72549152 72.08362007 C-10.45591791 70.20169109 -10.18634265 68.31976235 -9.91676617 66.43783379 C-9.61092284 64.30267952 -9.30509168 62.1675235 -8.99927235 60.0323658 C-7.69409779 50.9201261 -7.69409779 50.9201261 -7.11679077 46.89544678 C-6.68523418 43.88612653 -6.25445962 40.87669611 -5.82421875 37.8671875 C-5.67297043 36.81071014 -5.52172211 35.75423279 -5.3658905 34.66574097 C-4.60172633 29.30615732 -3.8532597 23.945077 -3.13525391 18.57910156 C-2.99948441 17.56606964 -2.8637149 16.55303772 -2.72383118 15.50930786 C-2.46883047 13.59647977 -2.21640597 11.68330588 -1.96696472 9.76974487 C-1.85387466 8.92034332 -1.74078461 8.07094177 -1.62426758 7.19580078 C-1.5272908 6.45451935 -1.43031403 5.71323792 -1.33039856 4.94949341 C-1 3 -1 3 0 0 Z " fill="#030403" transform="translate(882,381)"/>
<path d="M0 0 C2.05262744 0.00084943 4.10525578 0.00036499 6.15788269 -0.00132751 C11.64816419 -0.00217657 17.13824282 0.0152693 22.62847781 0.03639436 C28.39659984 0.05534615 34.16472822 0.05692599 39.93287659 0.06047058 C50.81902307 0.06973734 61.70507749 0.09427722 72.59118372 0.12451905 C85.00017415 0.15823177 97.40916933 0.17459119 109.81819427 0.18960536 C135.31056891 0.22083251 160.80286227 0.27348676 186.29516602 0.34057617 C185.57044003 4.25299374 184.47056389 7.49119321 182.81079102 11.11791992 C182.29476318 12.25487305 181.77873535 13.39182617 181.24707031 14.56323242 C180.97051605 15.1666748 180.69396179 15.77011719 180.4090271 16.3918457 C178.91242131 19.65966675 177.43475704 22.93604823 175.95532227 26.21166992 C175.6489534 26.88906219 175.34258453 27.56645447 175.02693176 28.26437378 C171.94356197 35.09363801 168.95329896 41.96148405 165.98266602 48.84057617 C165.7191333 49.4502121 165.45560059 50.05984802 165.18408203 50.68795776 C162.59661358 56.67367514 160.01660789 62.66259675 157.44018555 68.65307617 C149.83666816 86.33142532 142.1570887 103.96984567 134.27954102 121.52807617 C133.49802845 123.27217208 132.71661533 125.01631255 131.93530273 126.76049805 C130.0563953 130.95436852 128.17617051 135.14764587 126.29516602 139.34057617 C125.57846174 139.34388632 124.86175747 139.34719646 124.12333488 139.35060692 C106.58228243 139.4322755 89.0413162 139.5245058 71.50037956 139.62810326 C63.01727933 139.67795721 54.53418746 139.72440004 46.05102539 139.76245117 C38.64624232 139.7956743 31.24152994 139.83566557 23.83682549 139.88336623 C19.92596904 139.90833444 16.01515765 139.93019813 12.10424423 139.94392014 C-20.0587979 139.95142239 -20.0587979 139.95142239 -51.76733398 144.84057617 C-53.38103882 145.21980225 -53.38103882 145.21980225 -55.02734375 145.60668945 C-70.24495667 149.44728768 -84.63657297 156.23741253 -96.70483398 166.34057617 C-97.4022168 166.87811523 -98.09959961 167.4156543 -98.81811523 167.96948242 C-111.82119234 178.44769019 -120.11562896 194.47522045 -125.64233398 209.90307617 C-126.06562988 211.04969727 -126.48892578 212.19631836 -126.92504883 213.37768555 C-129.14921865 219.52612344 -131.12949497 225.68207358 -132.84155273 231.99291992 C-133.17872314 233.22389404 -133.51589355 234.45486816 -133.86328125 235.72314453 C-134.49554435 238.08945987 -135.09762968 240.46409765 -135.66552734 242.84667969 C-137.70727028 250.55149037 -137.70727028 250.55149037 -140.30761719 252.60839844 C-142.42526645 253.43170115 -144.47936164 253.88284524 -146.70483398 254.34057617 C-148.61577144 254.95640562 -150.52040641 255.59200035 -152.41967773 256.24291992 C-155.53582746 257.26451118 -158.65330533 258.28162834 -161.77319336 259.29174805 C-167.92662285 261.3143129 -173.85020251 263.565479 -179.70483398 266.34057617 C-179.10527715 260.85065821 -177.72932267 256.03542241 -175.89233398 250.84057617 C-174.03158731 245.43817917 -172.318828 240.08194654 -170.95483398 234.52807617 C-160.35848914 193.55554279 -142.35428981 151.71330119 -104.77514648 128.88745117 C-100.81729137 126.57720995 -96.78408398 124.42765754 -92.70483398 122.34057617 C-92.06368652 122.01041504 -91.42253906 121.68025391 -90.76196289 121.34008789 C-82.03218027 116.90276412 -73.24343029 113.6517761 -63.70483398 111.34057617 C-62.79971164 111.11924137 -61.89458929 110.89790657 -60.96203899 110.66986465 C-38.04969043 105.20452122 -15.22879784 103.73872914 8.25219727 103.73120117 C10.99088675 103.71831199 13.72952902 103.69961463 16.46818542 103.68109131 C22.84917532 103.64115375 29.23006482 103.62034083 35.61115998 103.60711741 C42.89835996 103.59103108 50.18539394 103.55253036 57.47249568 103.51252413 C72.4133302 103.43098145 87.35414622 103.3763606 102.29516602 103.34057617 C104.05399895 99.68072513 105.81006832 96.01955447 107.56567383 92.3581543 C108.05955597 91.33054993 108.55343811 90.30294556 109.06228638 89.24420166 C112.92259856 81.18814221 116.5576969 73.06556828 120.04516602 64.84057617 C123.25592395 57.30297821 126.50918299 49.80503948 129.99145508 42.3894043 C130.31115265 41.70654358 130.63085022 41.02368286 130.9602356 40.32012939 C131.73767566 38.65987062 132.5162952 37.00016423 133.29516602 35.34057617 C113.49232486 35.42473089 93.68956582 35.51995638 73.88684082 35.62810326 C64.6906091 35.67807204 55.49438559 35.72451577 46.2980957 35.76245117 C38.27590247 35.79555251 30.25377612 35.8354816 22.23165703 35.88336623 C17.99011444 35.90845233 13.74861518 35.93028472 9.50701904 35.94392014 C5.50150519 35.95690504 1.49614135 35.97912963 -2.50928879 36.00795937 C-3.96675349 36.01690865 -5.42424226 36.02269509 -6.88173294 36.02478981 C-22.09357187 36.05053065 -36.6488849 38.09967335 -51.51733398 41.21557617 C-52.73614258 41.45920898 -53.95495117 41.7028418 -55.21069336 41.95385742 C-61.83488309 43.32634118 -68.06545834 45.03946681 -74.37841797 47.4699707 C-77.15178556 48.50783709 -79.94541611 49.18038244 -82.82983398 49.84057617 C-100.80396717 54.81680352 -119.29731335 64.89226789 -134.57983398 75.52807617 C-135.59110352 76.22755371 -135.59110352 76.22755371 -136.62280273 76.94116211 C-143.34572664 81.6668332 -149.54549722 86.91186418 -155.70483398 92.34057617 C-156.4640918 92.98897461 -157.22334961 93.63737305 -158.00561523 94.30541992 C-188.72164581 120.60788494 -207.49332945 157.85562711 -220.9855957 195.2824707 C-240.31204114 248.54013651 -271.93806257 293.64118379 -323.70483398 319.34057617 C-328.93011294 321.72855693 -334.26221044 323.75417023 -339.68920898 325.63208008 C-341.53197998 326.27981765 -343.35425801 326.98511462 -345.17358398 327.69604492 C-357.86533416 332.42634172 -371.3753869 334.2383367 -384.70483398 336.34057617 C-385.63996102 336.51326743 -386.57508806 336.68595869 -387.53855228 336.86388302 C-393.48233586 337.69938508 -399.50413783 337.47418206 -405.49229431 337.46083069 C-406.90489282 337.46126706 -408.31749125 337.46214318 -409.73008925 337.46341985 C-413.60222087 337.46565187 -417.47432474 337.46166123 -421.34645283 337.45664179 C-425.52564627 337.45231891 -429.70483816 337.45378502 -433.8840332 337.45454407 C-441.12161059 337.45506813 -448.35917896 337.45193355 -455.59675407 337.44630623 C-466.06104225 337.43817539 -476.52532607 337.43557438 -486.98961706 337.43431824 C-503.96768989 337.43213021 -520.94575791 337.42547687 -537.92382812 337.41601562 C-554.41536434 337.40683507 -570.90689925 337.39975738 -587.3984375 337.39550781 C-588.41516393 337.39524509 -589.43189036 337.39498237 -590.47942667 337.39471168 C-595.58010052 337.39340663 -600.68077438 337.39214293 -605.78144825 337.39089978 C-648.08924682 337.38053493 -690.39704015 337.36292338 -732.70483398 337.34057617 C-732.04955299 332.34375685 -731.04262116 328.06106619 -729.23608398 323.34838867 C-728.87552917 322.40127518 -728.87552917 322.40127518 -728.50769043 321.43502808 C-728.00341086 320.11447613 -727.49567812 318.79523803 -726.98461914 317.47729492 C-726.19991056 315.45287455 -725.42614943 313.42452352 -724.65405273 311.39526367 C-720.86338002 301.49912221 -720.86338002 301.49912221 -719.70483398 300.34057617 C-717.93647577 300.24173857 -716.16412717 300.21394396 -714.39300919 300.21308422 C-713.2335479 300.21007657 -712.07408661 300.20706892 -710.87949014 300.20397013 C-709.58936887 300.20572051 -708.29924759 300.20747088 -706.97003174 300.20927429 C-705.5982017 300.20757369 -704.22637215 300.20542472 -702.85454345 300.20286304 C-699.85972764 300.19825064 -696.86493254 300.19684816 -693.87011337 300.19782829 C-688.99729342 300.199416 -684.12449412 300.19422938 -679.25167847 300.1882019 C-672.17283382 300.18007353 -665.0939928 300.17513947 -658.01514435 300.17191124 C-646.8104348 300.16641674 -635.60575576 300.14951818 -624.40106201 300.13056946 C-620.56694418 300.12421165 -616.73282626 300.11790325 -612.89870834 300.11159229 C-611.46106437 300.10921665 -611.46106437 300.10921665 -609.99437709 300.10679301 C-599.07234409 300.08883923 -588.15030891 300.07262481 -577.22827148 300.05761719 C-576.22949894 300.05624132 -575.2307264 300.05486544 -574.20168802 300.05344788 C-558.06255684 300.03157834 -541.92343348 300.02077742 -525.78429011 300.01324644 C-509.20119008 300.00515201 -492.61815684 299.98178062 -476.03509498 299.94529277 C-465.81724426 299.92335155 -455.59953122 299.91357738 -445.38165817 299.91979311 C-438.35965446 299.92298786 -431.33776745 299.9115058 -424.31579986 299.88889869 C-420.27472603 299.87633248 -416.23391246 299.86993571 -412.19282913 299.88131523 C-390.61475931 299.93646244 -370.20563423 298.72708448 -349.70483398 291.34057617 C-348.53049805 290.92163086 -347.35616211 290.50268555 -346.14624023 290.07104492 C-310.07760725 276.68655155 -282.91948959 248.8479519 -266.70483398 214.34057617 C-260.76885121 201.26383968 -255.48549902 187.95903168 -250.57983398 174.46557617 C-246.46824702 163.16275569 -241.95862883 152.16138698 -236.70483398 141.34057617 C-236.38337402 140.67703125 -236.06191406 140.01348633 -235.73071289 139.32983398 C-227.95759374 123.52623426 -217.74736411 109.01726435 -206.70483398 95.34057617 C-206.29475098 94.8275293 -205.88466797 94.31448242 -205.4621582 93.78588867 C-194.25744597 79.8353062 -181.68250988 67.18966574 -167.29711914 56.53149414 C-165.81334782 55.42173694 -164.3574064 54.27503721 -162.90405273 53.12573242 C-117.24089963 17.4090087 -57.54722897 -0.34179564 0 0 Z " fill="#030404" transform="translate(870.704833984375,189.659423828125)"/>
<path d="M0 0 C116.49 0 232.98 0 353 0 C347.66860344 13.32849139 336.0164886 22.52063156 323.1875 28.3125 C309.4767649 33.78463374 296.25491314 36.15687819 281.54127502 36.12025452 C280.28572703 36.12110894 279.03017903 36.12196337 277.73658413 36.12284368 C274.26350637 36.12507363 270.7904596 36.12108793 267.31738579 36.11606562 C263.56764423 36.11173973 259.81790436 36.11320906 256.06816101 36.1139679 C249.57541555 36.11449177 243.08268014 36.11135917 236.58993721 36.10573006 C227.20256712 36.09759665 217.81520189 36.09499795 208.42782866 36.09374207 C193.19675606 36.09155444 177.96568883 36.0849022 162.73461914 36.07543945 C147.9406741 36.06625785 133.14673052 36.05918067 118.3527832 36.05493164 C117.44060162 36.05466892 116.52842004 36.05440619 115.58859659 36.05413551 C111.01236524 36.05283045 106.43613387 36.05156675 101.8599025 36.05032361 C63.90659788 36.03996001 25.95329936 36.02234956 -12 36 C-9.92049902 23.52299412 -4.35451515 11.8759504 0 0 Z " fill="#010201" transform="translate(210,581)"/>
<path d="M0 0 C108.24 0 216.48 0 328 0 C317.87911404 17.71155044 300.62389635 27.85959198 281.36357975 33.37013531 C280.58359843 33.57799066 279.80361712 33.785846 279 34 C278.09032439 34.25163564 277.18064878 34.50327127 276.24340725 34.76253223 C263.24154364 37.86141228 250.16287407 37.39851756 236.86938477 37.34057617 C234.13814038 37.33805127 231.40690366 37.34007547 228.67565918 37.34190369 C222.82199006 37.34346776 216.96842218 37.33414993 211.11477852 37.31719017 C202.65167501 37.29268614 194.18861986 37.28498332 185.72548472 37.2812262 C171.9907089 37.27467948 158.25598689 37.25476693 144.52124023 37.22631836 C131.18856066 37.19873151 117.85589576 37.17752064 104.52319336 37.16479492 C103.69973644 37.16400675 102.87627951 37.16321858 102.02786935 37.16240653 C97.89634122 37.15849108 93.76481299 37.15470004 89.63328469 37.15097082 C55.42215109 37.1199304 21.21108137 37.06714346 -13 37 C-14.30585501 33.08243497 -13.37060734 31.81725175 -11.796875 28.046875 C-11.31089844 26.86996094 -10.82492187 25.69304687 -10.32421875 24.48046875 C-9.79966509 23.23690073 -9.27492402 21.99341174 -8.75 20.75 C-7.99396484 18.92662109 -7.99396484 18.92662109 -7.22265625 17.06640625 C-4.85219351 11.36111929 -2.43374372 5.67873535 0 0 Z " fill="#040504" transform="translate(284,309)"/>
<path d="M0 0 C94.71 0 189.42 0 287 0 C279.40738026 11.93125959 272.64770812 20.65802602 260 27 C258.99710937 27.51304687 257.99421875 28.02609375 256.9609375 28.5546875 C239.38525002 36.82802048 220.99633362 37.58496213 201.88183594 37.45410156 C199.53408833 37.4529703 197.18633932 37.45361238 194.83859253 37.45587158 C188.52993336 37.45700876 182.22158487 37.43366239 175.91299725 37.40557575 C169.96847343 37.38295329 164.02395995 37.37906858 158.0793989 37.37496826 C146.32175508 37.36625992 134.56422361 37.33976699 122.80664062 37.30175781 C111.39974521 37.26492116 99.99288055 37.23666683 88.5859375 37.21972656 C87.88028702 37.21867567 87.17463654 37.21762477 86.44760272 37.21654204 C82.90680664 37.21132108 79.36601035 37.20626644 75.82521391 37.20129442 C46.55007032 37.15997167 17.27503637 37.08934476 -12 37 C-9.18733025 24.34298613 -4.36085932 12.2104061 0 0 Z " fill="#030403" transform="translate(244,672)"/>
<path d="M0 0 C70.29 0 140.58 0 213 0 C207.07620978 14.80947556 194.05177544 22.93313948 180.01953125 29.16308594 C165.7010277 35.09681782 150.89225829 36.3027664 135.58300781 36.22705078 C133.96549486 36.22648542 132.3479814 36.22680567 130.73046875 36.22793579 C126.3759004 36.22850542 122.02144409 36.21681489 117.66690159 36.20278788 C113.10254561 36.19021489 108.53818655 36.18910487 103.97381592 36.18673706 C95.34686137 36.18054148 86.71995801 36.16415689 78.09302592 36.14403808 C68.2646468 36.12161898 58.43626513 36.11067058 48.60786676 36.10064721 C28.40521603 36.0797888 8.20261125 36.04465051 -12 36 C-9.92049902 23.52299412 -4.35451515 11.8759504 0 0 Z " fill="#010302" transform="translate(362,400)"/>
</svg>